<?xml version="1.0" encoding="UTF-8" standalone="no"?>
<svg
   width="188"
   height="60"
   viewBox="0 0 188 60"
   fill="none"
   version="1.1"
   id="svg82"
   sodipodi:docname="astar.svg"
   inkscape:version="1.3.2 (091e20e, 2023-11-25, custom)"
   xmlns:inkscape="http://www.inkscape.org/namespaces/inkscape"
   xmlns:sodipodi="http://sodipodi.sourceforge.net/DTD/sodipodi-0.dtd"
   xmlns="http://www.w3.org/2000/svg"
   xmlns:svg="http://www.w3.org/2000/svg">
  <sodipodi:namedview
     id="namedview82"
     pagecolor="#505050"
     bordercolor="#eeeeee"
     borderopacity="1"
     inkscape:showpageshadow="0"
     inkscape:pageopacity="0"
     inkscape:pagecheckerboard="0"
     inkscape:deskcolor="#505050"
     inkscape:zoom="3.2074468"
     inkscape:cx="94"
     inkscape:cy="30.086235"
     inkscape:window-width="1280"
     inkscape:window-height="649"
     inkscape:window-x="-8"
     inkscape:window-y="-8"
     inkscape:window-maximized="1"
     inkscape:current-layer="g30" />
  <g
     clip-path="url(#clip0_286_12148)"
     id="g30">
    <path
       d="M59.9233 27.9652C58.8003 11.4332 44.4903 -1.05281 27.9633 0.0701883C19.7303 0.631188 12.5003 4.46619 7.45428 10.2112L7.43928 10.2012C7.40328 10.2472 7.37228 10.2932 7.34128 10.3392C2.33028 16.1202 -0.489723 23.8012 0.070277 32.0362C0.122277 32.8222 0.214277 33.5922 0.327277 34.3562C0.327277 34.3932 0.337277 34.4232 0.342277 34.4592C0.419277 34.9622 0.507277 35.4662 0.604277 35.9592C0.696223 36.4149 0.798918 36.8683 0.912277 37.3192C4.37828 51.1352 17.3213 60.9202 32.0353 59.9192C48.5623 58.7952 61.0533 44.4862 59.9293 27.9552L59.9233 27.9652ZM53.3933 28.4112C53.5323 30.4452 53.4033 32.4372 53.0393 34.3572C53.0393 34.3472 53.0293 34.3372 53.0293 34.3262C50.8513 29.0122 46.5493 25.1722 42.7703 23.0512C43.5353 14.0462 40.4803 10.2472 37.0203 9.63119C36.3498 9.50524 35.6607 9.51768 34.9953 9.66773C34.3298 9.81778 33.7021 10.1023 33.1506 10.5038C32.5991 10.9052 32.1355 11.4152 31.7882 12.0024C31.441 12.5895 31.2174 13.2415 31.1313 13.9182C31.047 14.571 31.0923 15.234 31.2646 15.8692C31.4369 16.5044 31.7328 17.0995 32.1354 17.6202C32.538 18.1409 33.0393 18.5771 33.6107 18.9038C34.1821 19.2306 34.8123 19.4414 35.4653 19.5242C35.7063 19.5552 35.9423 19.5652 36.1733 19.5602C36.1901 19.8816 36.1988 20.2034 36.1993 20.5252C33.0003 19.7352 30.0123 19.5752 27.2863 19.8222C26.2612 19.8894 25.241 20.018 24.2313 20.2072C24.5713 17.1672 25.7153 13.7482 27.9283 11.2532C30.0683 8.83519 33.2523 7.45419 36.7223 7.80819C37.3803 7.87519 38.0833 8.03919 38.7143 8.25019C38.7453 8.26019 38.7763 8.27019 38.8023 8.27519C46.8423 11.5512 52.7623 19.1852 53.3883 28.4112H53.3933ZM32.4823 32.9912C32.4823 32.9912 32.4823 32.9962 32.4773 33.0012C31.7188 34.0912 30.8593 35.1074 29.9103 36.0362C28.4729 34.5179 27.256 32.8051 26.2953 30.9482C26.2493 30.8502 26.1983 30.7632 26.1513 30.6652V30.6552C25.5883 29.4518 25.138 28.1987 24.8063 26.9122C26.9363 26.4092 29.0263 26.2242 31.0243 26.3222L31.3423 26.3372H31.3523C32.6053 26.4402 33.9093 26.6712 35.2593 27.0412C34.6326 29.1484 33.6985 31.1516 32.4873 32.9862L32.4823 32.9912ZM22.2343 7.87019L22.2193 7.89019C18.7023 12.4292 17.5313 18.0712 17.5833 22.4042C9.39928 26.2442 7.64328 30.7882 8.83428 34.0942C8.86428 34.1872 8.90128 34.2742 8.93728 34.3622C9.4504 35.5879 10.4292 36.5597 11.6585 37.0642C12.8878 37.5686 14.2671 37.5643 15.4933 37.0522C16.719 36.5391 17.6908 35.5603 18.1952 34.331C18.6997 33.1016 18.6953 31.7223 18.1833 30.4962C18.0901 30.2784 17.9822 30.0673 17.8603 29.8642C18.1173 29.6942 18.3943 29.5262 18.6923 29.3512C19.6053 32.5192 20.9563 35.1942 22.5323 37.4322C23.1023 38.2792 23.7183 39.0952 24.3903 39.8812C21.5873 41.1082 18.0553 41.8272 14.7843 41.1592C11.6223 40.5132 8.83428 38.4492 7.40228 35.2652C7.12795 34.6408 6.92143 33.9887 6.78628 33.3202C6.70184 32.746 6.63847 32.169 6.59628 31.5902C5.86628 20.8442 12.5313 11.2792 22.2343 7.87019ZM31.5883 53.3942C25.2073 53.8302 19.2413 51.6542 14.7333 47.7822C20.4223 48.5582 25.8953 46.7502 29.6233 44.5382C37.0413 49.7082 41.8573 48.9582 44.1263 46.2732C44.5708 45.755 44.9048 45.1514 45.1076 44.4994C45.3104 43.8475 45.3778 43.161 45.3057 42.482C45.2336 41.8031 45.0235 41.146 44.6883 40.5513C44.353 39.9565 43.8998 39.4365 43.3563 39.0232C42.8328 38.6241 42.2358 38.3321 41.5994 38.1639C40.963 37.9956 40.2997 37.9544 39.6474 38.0427C38.9951 38.1309 38.3666 38.3468 37.7977 38.6781C37.2289 39.0093 36.7309 39.4494 36.3323 39.9732C36.1893 40.1632 36.0603 40.3692 35.9473 40.5742C35.6753 40.4352 35.3873 40.2812 35.0953 40.1122C37.1855 37.9558 38.8983 35.4634 40.1623 32.7392C40.6148 31.8171 41.0125 30.8691 41.3533 29.9002C43.8183 31.7182 46.2103 34.4132 47.2683 37.5802C48.2903 40.6402 47.8993 44.0902 45.8563 46.9202C45.4527 47.4693 44.9914 47.9735 44.4803 48.4242L44.4603 48.4442C40.7684 51.3522 36.2835 53.0759 31.5943 53.3892L31.5883 53.3942Z"
       fill="url(#paint0_linear_286_12148)"
       id="path1" />
    <path
       style="mix-blend-mode:overlay"
       opacity="0.9"
       d="M37.0205 9.62605C36.4577 9.51919 35.8806 9.51242 35.3155 9.60605C38.1865 11.166 40.2755 15.515 39.1775 24.099C38.8139 26.8907 37.9936 29.6036 36.7495 32.129C35.6773 34.4336 34.2819 36.5735 32.6055 38.484C33.4002 39.0819 34.2319 39.6289 35.0955 40.122C37.1859 37.966 38.8991 35.474 40.1635 32.75C41.4106 30.2258 42.231 27.5124 42.5915 24.72C43.9015 14.503 40.6875 10.283 37.0215 9.63005L37.0205 9.62605Z"
       fill="url(#paint1_radial_286_12148)"
       id="path2" />
    <g
       style="mix-blend-mode:overlay"
       opacity="0.8"
       id="g3">
      <path
         d="M39.176 24.0941C40.275 15.5141 38.185 11.1611 35.315 9.6001C35.202 9.6151 35.095 9.6411 34.981 9.6671C37.79 11.2841 39.812 15.6271 38.729 24.0941C38.3655 26.8858 37.5452 29.5987 36.301 32.1241C35.2676 34.3471 33.932 36.4167 32.332 38.2741C32.424 38.3461 32.512 38.4131 32.604 38.4791C34.279 36.5673 35.674 34.4272 36.747 32.1231C37.9945 29.5989 38.8153 26.8865 39.176 24.0941Z"
         fill="white"
         id="path3" />
    </g>
    <path
       style="mix-blend-mode:overlay"
       opacity="0.5"
       d="M28.2661 43.5569C27.9941 43.3519 27.7371 43.1359 27.4761 42.9199C23.2401 44.6869 17.3711 45.7949 11.5391 44.4399C12.4888 45.6564 13.5567 46.7759 14.7271 47.7819C20.4161 48.5579 25.8891 46.7499 29.6171 44.5379C29.1589 44.2178 28.7068 43.8891 28.2611 43.5519L28.2661 43.5569Z"
       fill="url(#paint2_radial_286_12148)"
       id="path4" />
    <path
       style="mix-blend-mode:overlay"
       opacity="0.6"
       d="M27.4803 42.9202C27.3523 42.8122 27.2193 42.7052 27.0963 42.5972C22.8293 44.3012 16.9303 45.3232 11.1133 43.8702C11.2573 44.0602 11.4013 44.2552 11.5443 44.4402C17.3723 45.7952 23.2443 44.6872 27.4803 42.9202Z"
       fill="url(#paint3_linear_286_12148)"
       id="path5" />
    <path
       style="mix-blend-mode:overlay"
       opacity="0.9"
       d="M8.83829 34.0999C8.86829 34.1919 8.90529 34.2799 8.94129 34.3669C9.13129 34.8189 9.37729 35.2239 9.67529 35.5889C9.59329 32.3239 12.3143 28.3339 20.2923 24.9969C22.8915 23.9158 25.6512 23.2705 28.4603 23.0869C30.993 22.8611 33.5449 22.9995 36.0383 23.4979C36.1673 22.4199 36.2183 21.4139 36.2083 20.5249C33.2961 19.7918 30.2813 19.5541 27.2903 19.8219C24.4809 20.0059 21.721 20.6512 19.1213 21.7319C9.61929 25.7059 7.57029 30.5989 8.83929 34.1049V34.0999H8.83829Z"
       fill="url(#paint4_radial_286_12148)"
       id="path6" />
    <g
       style="mix-blend-mode:overlay"
       opacity="0.8"
       id="g7">
      <path
         d="M20.2927 25.0022C12.3147 28.3402 9.59266 32.3292 9.67566 35.5942C9.74766 35.6812 9.82466 35.7642 9.90166 35.8462C9.89566 32.6062 12.6477 28.6842 20.5187 25.3872C23.1179 24.3061 25.8776 23.6608 28.6867 23.4772C31.1286 23.2612 33.5887 23.3823 35.9977 23.8372C36.0138 23.7245 36.0275 23.6115 36.0387 23.4982C33.5449 23.0026 30.9933 22.8646 28.4607 23.0882C25.6516 23.2723 22.8921 23.9176 20.2927 24.9982V25.0022Z"
         fill="white"
         id="path7" />
    </g>
    <path
       style="mix-blend-mode:overlay"
       opacity="0.4"
       d="M42.6013 24.7148C42.5613 25.0538 42.5043 25.3818 42.4473 25.7158C46.0923 28.4988 49.9893 33.0318 51.7353 38.7558C52.3123 37.3235 52.7474 35.8381 53.0343 34.3208C50.8623 29.0068 46.5603 25.1708 42.7813 23.0508C42.7353 23.5908 42.6783 24.1398 42.6063 24.7148H42.6013Z"
       fill="url(#paint5_radial_286_12148)"
       id="path8" />
    <path
       style="mix-blend-mode:overlay"
       opacity="0.5"
       d="M42.4474 25.7158C42.4164 25.8798 42.3904 26.0498 42.3594 26.2138C45.9694 29.0578 49.8044 33.6538 51.4524 39.4188C51.5494 39.1988 51.6424 38.9768 51.7294 38.7568C49.9844 33.0318 46.0924 28.5038 42.4414 25.7158H42.4474Z"
       fill="url(#paint6_linear_286_12148)"
       id="path9" />
    <path
       style="mix-blend-mode:overlay"
       opacity="0.9"
       d="M44.1258 46.2682C44.4968 45.8311 44.7919 45.3349 44.9988 44.8002C42.2108 46.5042 37.3988 46.1402 30.5148 40.8972C28.2769 39.1878 26.3374 37.1199 24.7748 34.7772C23.3127 32.6974 22.156 30.4189 21.3398 28.0112C20.3438 28.4372 19.4458 28.8992 18.6758 29.3512C19.4988 32.2395 20.8001 34.9693 22.5258 37.4272C24.0658 39.7272 25.9858 41.8072 28.2658 43.5472C36.4598 49.7902 41.7228 49.1172 44.1198 46.2672H44.1258V46.2682Z"
       fill="url(#paint7_radial_286_12148)"
       id="path10" />
    <g
       style="mix-blend-mode:overlay"
       opacity="0.8"
       id="g11">
      <path
         d="M30.5196 40.8978C37.3986 46.1388 42.2146 46.5038 45.0016 44.7988C45.0426 44.6918 45.0786 44.5838 45.1096 44.4808C42.3066 46.1088 37.5316 45.6818 30.7446 40.5128C28.5068 38.8034 26.5673 36.7355 25.0046 34.3928C23.5965 32.3868 22.4719 30.1962 21.6626 27.8828C21.5546 27.9288 21.4526 27.9698 21.3496 28.0158C22.1654 30.4238 23.3218 32.7026 24.7836 34.7828C26.3236 37.0828 28.2436 39.1628 30.5236 40.9028L30.5186 40.8978H30.5196Z"
         fill="white"
         id="path11" />
    </g>
    <path
       style="mix-blend-mode:overlay"
       opacity="0.3"
       d="M19.1167 21.7219C19.4297 21.5929 19.7427 21.4749 20.0607 21.3569C20.6467 16.8079 22.6227 11.1659 26.7107 6.79688C25.1807 7.01687 23.6757 7.37688 22.2177 7.88488C18.6997 12.4239 17.5297 18.0659 17.5817 22.3999C18.0687 22.1699 18.5777 21.9429 19.1117 21.7229L19.1167 21.7219Z"
       fill="url(#paint8_radial_286_12148)"
       id="path12" />
    <path
       style="mix-blend-mode:overlay"
       opacity="0.4"
       d="M20.0605 21.3571C20.2205 21.3011 20.3745 21.2391 20.5335 21.1831C21.1905 16.6331 23.2545 11.0171 27.4185 6.7041C27.1825 6.7301 26.9455 6.7611 26.7095 6.7921C22.6225 11.1661 20.6465 16.8031 20.0615 21.3521V21.3571H20.0605Z"
       fill="url(#paint9_linear_286_12148)"
       id="path13" />
    <path
       style="mix-blend-mode:multiply"
       opacity="0.4"
       d="M27.9628 0.0711582C19.7278 0.631158 12.4998 4.46616 7.45284 10.2112L7.33984 10.3392C8.31984 11.3152 11.5338 13.2352 12.8328 14.0362C15.4213 11.2475 18.65 9.13119 22.2398 7.87016C22.4918 7.54116 22.7578 7.21816 23.0358 6.90516C26.4238 3.08016 31.0498 1.06216 36.4198 1.06216C37.0158 1.06216 38.2328 1.16016 38.2578 1.16016C34.9164 0.198935 31.4325 -0.169965 27.9638 0.0701582L27.9628 0.0711582Z"
       fill="url(#paint10_linear_286_12148)"
       id="path14" />
    <path
       style="mix-blend-mode:multiply"
       opacity="0.4"
       d="M31.5881 53.3991C25.2071 53.8351 19.2411 51.6591 14.7331 47.7881C14.3097 47.7328 13.8885 47.6624 13.4701 47.5771C8.46411 46.5551 4.39811 43.5571 1.71811 38.9111C1.42301 38.3977 1.154 37.8697 0.912109 37.3291C4.37811 51.1451 17.3211 60.9311 32.0301 59.9291C32.0971 58.4151 31.6501 54.8991 31.5831 53.3991H31.5881Z"
       fill="url(#paint11_linear_286_12148)"
       id="path15" />
    <path
       style="mix-blend-mode:multiply"
       opacity="0.4"
       d="M59.9238 27.965C58.9998 27.872 54.5018 28.227 53.3938 28.411C53.5318 30.445 53.4038 32.437 53.0388 34.357C53.1928 34.737 53.3418 35.127 53.4748 35.522C55.0928 40.369 54.5278 45.385 51.8478 50.036C51.5512 50.5484 51.2291 51.0457 50.8828 51.526C50.8828 51.526 50.8978 51.515 50.9028 51.505C56.9978 45.575 60.5448 37.114 59.9238 27.97V27.965Z"
       fill="url(#paint12_linear_286_12148)"
       id="path16" />
    <path
       style="mix-blend-mode:multiply"
       opacity="0.5"
       d="M36.7282 7.80296C37.3852 7.86996 38.0882 8.03396 38.7202 8.24496C38.7502 8.25496 38.7822 8.26496 38.8072 8.26996C41.3826 9.32111 43.7518 10.8195 45.8052 12.696C45.8052 12.696 45.8152 12.701 45.8202 12.706C46.8062 11.582 48.7002 10.345 48.7002 10.345C48.7002 10.345 45.8002 7.37696 41.3592 6.45296C38.2532 5.80596 31.2452 5.18496 26.8242 12.706L26.8652 12.666C27.1942 12.172 27.5382 11.69 27.9332 11.248C30.0742 8.82996 33.2572 7.44796 36.7282 7.80296Z"
       fill="url(#paint13_linear_286_12148)"
       id="path17" />
    <path
       style="mix-blend-mode:multiply"
       opacity="0.5"
       d="M45.8564 46.9251C45.4528 47.4741 44.9915 47.9784 44.4804 48.4291C44.4604 48.4491 44.4344 48.4701 44.4134 48.4911C42.2153 50.1946 39.7335 51.4962 37.0824 52.3361C37.0774 52.3361 37.0724 52.3361 37.0664 52.3411C37.5494 53.7581 37.6724 56.0171 37.6724 56.0171C37.6724 56.0171 41.6924 54.9911 44.7124 51.6071C46.8224 49.2401 50.8674 43.4801 46.5644 35.8921C46.5644 35.8921 46.5704 35.9171 46.5804 35.9481C46.8474 36.4781 47.0884 37.0211 47.2734 37.5811C48.2954 40.6411 47.9044 44.0911 45.8614 46.9201L45.8564 46.9251Z"
       fill="url(#paint14_linear_286_12148)"
       id="path18" />
    <path
       style="mix-blend-mode:multiply"
       opacity="0.5"
       d="M7.41291 35.2762C7.13817 34.6515 6.93131 33.9991 6.79591 33.3302C6.79091 33.3002 6.78091 33.2682 6.77591 33.2372C6.39591 30.4702 6.51891 27.6672 7.10991 24.9672V24.9512C5.64091 24.6632 3.62391 23.6372 3.62391 23.6372C3.62391 23.6372 2.50391 27.6372 3.92691 31.9392C4.92291 34.9522 7.88491 41.3342 16.6069 41.4012C16.6069 41.4012 16.5819 41.3952 16.5509 41.3852C15.9609 41.3492 15.3709 41.2882 14.7909 41.1702C11.6279 40.5232 8.83991 38.4592 7.40691 35.2762H7.41291Z"
       fill="url(#paint15_linear_286_12148)"
       id="path19" />
    <path
       style="mix-blend-mode:multiply"
       opacity="0.6"
       d="M35.4642 19.5202C35.7052 19.5502 35.9412 19.5602 36.1722 19.5552C36.1722 19.5552 36.0132 16.4392 35.6332 14.8372C35.2482 13.2402 34.6832 12.1772 34.0672 11.5772C33.6212 11.1462 32.2192 10.6112 31.1312 13.9072C31.0468 14.56 31.0919 15.223 31.2641 15.8583C31.4363 16.4936 31.7321 17.0887 32.1346 17.6095C32.5371 18.1304 33.0383 18.5667 33.6097 18.8935C34.181 19.2204 34.8112 19.4313 35.4642 19.5142V19.5192V19.5202Z"
       fill="url(#paint16_linear_286_12148)"
       id="path20" />
    <path
       style="mix-blend-mode:multiply"
       opacity="0.5"
       d="M18.19 30.506C18.0964 30.2886 17.9881 30.0777 17.866 29.875C17.866 29.875 15.242 31.569 14.051 32.698C12.86 33.828 12.223 34.85 12.013 35.686C11.864 36.287 12.1 37.766 15.499 37.062C16.7247 36.5489 17.6965 35.5701 18.2009 34.3408C18.7053 33.1115 18.701 31.7322 18.189 30.506H18.19Z"
       fill="url(#paint17_linear_286_12148)"
       id="path21" />
    <path
       style="mix-blend-mode:multiply"
       opacity="0.6"
       d="M36.3381 39.9678C36.1941 40.1578 36.0661 40.3638 35.9531 40.5678C35.9531 40.5678 38.7311 41.9908 40.3071 42.4578C41.8831 42.9258 43.0841 42.9668 43.9111 42.7298C44.5071 42.5608 45.6671 41.6108 43.3611 39.0238C42.8377 38.6249 42.2408 38.333 41.6045 38.1648C40.9682 37.9967 40.305 37.9555 39.6528 38.0438C39.0006 38.132 38.3722 38.3478 37.8035 38.679C37.2347 39.0102 36.7368 39.4501 36.3381 39.9738V39.9678Z"
       fill="url(#paint18_linear_286_12148)"
       id="path22" />
    <path
       style="mix-blend-mode:multiply"
       opacity="0.3"
       d="M35.26 27.0459C34.63 29.1409 33.746 31.0459 32.663 32.7239C32.606 32.8109 32.55 32.8989 32.488 32.9909C32.488 32.9909 32.488 32.9959 32.483 33.0009C31.7245 34.0909 30.8651 35.1071 29.916 36.0359C30.604 36.7649 31.343 37.4729 32.16 38.1459C33.0878 38.8757 34.0692 39.5345 35.096 40.1169C37.1865 37.9609 38.8997 35.4688 40.164 32.7449C40.6163 31.8225 41.0136 30.8742 41.354 29.9049C40.297 29.1299 39.229 28.5089 38.244 28.0879C37.273 27.6718 36.2743 27.3236 35.255 27.0459H35.261H35.26Z"
       fill="url(#paint19_linear_286_12148)"
       id="path23" />
    <path
       style="mix-blend-mode:multiply"
       opacity="0.3"
       d="M14.7343 47.7882C20.4223 48.5632 25.8952 46.7562 29.6232 44.5432C29.1651 44.2231 28.713 43.8944 28.2673 43.5572C26.8494 42.4726 25.549 41.2425 24.3872 39.8872C21.5832 41.1132 18.0512 41.8322 14.7802 41.1642C11.6182 40.5182 8.83025 38.4542 7.39725 35.2712C7.12286 34.6464 6.91635 33.994 6.78125 33.3252C7.60825 39.1262 10.5342 44.1882 14.7292 47.7872L14.7343 47.7882Z"
       fill="url(#paint20_linear_286_12148)"
       id="path24" />
    <path
       style="mix-blend-mode:multiply"
       opacity="0.3"
       d="M29.9153 36.0351C28.4783 34.517 27.2618 32.8046 26.3013 30.9481C26.2553 30.8501 26.2033 30.7631 26.1573 30.6651V30.6551C25.5943 29.4517 25.144 28.1986 24.8123 26.9121C23.8363 27.1431 22.8563 27.4311 21.8703 27.8011C20.7757 28.2385 19.7151 28.7566 18.6973 29.3511C19.6113 32.5191 20.9613 35.1941 22.5373 37.4321C23.1073 38.2791 23.7243 39.0951 24.3973 39.8811C25.5973 39.3571 26.6713 38.7361 27.5273 38.0941C28.3705 37.4608 29.17 36.7712 29.9203 36.0301L29.9153 36.0351Z"
       fill="url(#paint21_linear_286_12148)"
       id="path25" />
    <path
       style="mix-blend-mode:multiply"
       opacity="0.3"
       d="M22.2197 7.89011C18.7027 12.4291 17.5317 18.0711 17.5837 22.4041C18.0905 22.1661 18.6023 21.9387 19.1187 21.7221C20.7644 21.0347 22.4783 20.5235 24.2317 20.1971C24.5717 17.1571 25.7157 13.7381 27.9287 11.2431C30.0687 8.82511 33.2527 7.44311 36.7237 7.79811C37.3807 7.86511 38.0837 8.02911 38.7157 8.24011C38.7457 8.25011 38.7767 8.26011 38.8027 8.26511C35.5082 6.9208 31.9493 6.35016 28.3997 6.59711C26.2437 6.74611 24.1797 7.18211 22.2287 7.87011C22.2237 7.87511 22.2187 7.88511 22.2137 7.89011H22.2197Z"
       fill="url(#paint22_linear_286_12148)"
       id="path26" />
    <path
       style="mix-blend-mode:multiply"
       opacity="0.3"
       d="M53.0344 34.316C50.8584 29.002 46.5554 25.161 42.7764 23.041C42.7304 23.581 42.6744 24.135 42.5964 24.715C42.3673 26.4836 41.9526 28.2232 41.3594 29.905C43.8244 31.723 46.2164 34.418 47.2744 37.586C48.2954 40.646 47.9054 44.096 45.8624 46.925C45.4588 47.4741 44.9975 47.9783 44.4864 48.429L44.4664 48.449C48.8714 44.989 51.9864 39.999 53.0554 34.352C53.0554 34.342 53.0454 34.331 53.0454 34.321L53.0344 34.316Z"
       fill="url(#paint23_linear_286_12148)"
       id="path27" />
    <path
       style="mix-blend-mode:multiply"
       opacity="0.3"
       d="M24.2164 23.8109C24.342 24.8569 24.5392 25.893 24.8064 26.9119C26.9374 26.4089 29.0264 26.2239 31.0244 26.3219L31.3424 26.3369H31.3524C32.6054 26.4399 33.9094 26.6709 35.2604 27.0409C35.5474 26.0809 35.7894 25.0839 35.9634 24.0469C36.1534 22.7539 36.2094 21.5569 36.2044 20.5149C33.0064 19.7249 30.0184 19.5649 27.2924 19.8119C26.2673 19.8791 25.2471 20.0077 24.2374 20.1969C24.0934 21.5009 24.0874 22.7379 24.2214 23.8069L24.2164 23.8109Z"
       fill="url(#paint24_linear_286_12148)"
       id="path28" />
    <path
       d="M150.426 22.2812L146.565 33.0272H146.596L150.447 22.3432L150.426 22.2812ZM81.8913 22.2812L78.0312 33.0272H78.0462L81.9062 22.3172L81.8913 22.2812ZM82.8563 24.9662L85.7513 33.0272H79.9453L78.4813 37.0932H87.2303L89.7103 43.9882H95.2603L85.1463 18.6162L82.8563 24.9662Z"
       fill="#020617"
       id="path29"
       style="fill:#f2f4fe;fill-opacity:1" />
    <path
       d="M78.0312 33.0269L81.8922 22.2809L81.9082 22.3169L83.5352 17.7989H79.2742L68.8672 43.9899H74.0942L78.0472 33.0279L78.0312 33.0269ZM112.077 30.4959C110.814 29.7509 109.135 29.0529 107.045 28.4109C105.849 28.0209 104.914 27.6609 104.237 27.3279C103.559 26.9939 103.087 26.6149 102.825 26.1939C102.563 25.7669 102.43 25.2689 102.43 24.6939C102.43 23.6829 102.82 22.9029 103.6 22.3539C104.381 21.8039 105.474 21.5269 106.876 21.5269C108.026 21.5269 109.222 21.7009 110.475 22.0449C111.727 22.3889 112.836 22.8609 113.802 23.4569L114.526 19.2209C113.54 18.6259 112.338 18.1479 110.927 17.7889C109.548 17.4378 108.13 17.2585 106.706 17.2549C104.802 17.2549 103.143 17.5629 101.747 18.1849C100.345 18.8049 99.2622 19.6889 98.4922 20.8389C97.7222 21.9889 97.3372 23.3439 97.3372 24.9049C97.3372 26.2399 97.5932 27.3899 98.1122 28.3649C98.6302 29.3409 99.4722 30.1879 100.643 30.8959C101.813 31.6099 103.354 32.2519 105.258 32.8259C106.634 33.2429 107.702 33.6329 108.462 33.9969C109.222 34.3619 109.751 34.7729 110.049 35.2189C110.346 35.6659 110.495 36.1989 110.495 36.8209C110.495 37.8989 110.054 38.7459 109.171 39.3519C108.288 39.9579 107.061 40.2659 105.5 40.2659C104.144 40.2659 102.727 40.0559 101.244 39.6289C99.7602 39.2029 98.4712 38.6589 97.3672 37.9919L96.8852 42.3659C97.5262 42.8019 98.3332 43.1819 99.2982 43.5009C100.263 43.8239 101.3 44.0759 102.414 44.2609C103.528 44.4449 104.637 44.5379 105.741 44.5379C108.842 44.5379 111.276 43.8289 113.047 42.4179C114.813 41.0049 115.701 39.0489 115.701 36.5439C115.701 35.2139 115.414 34.0589 114.839 33.0839C114.264 32.1079 113.345 31.2449 112.082 30.5009L112.077 30.4959ZM139.57 17.7999H117.416V22.0699H139.57V17.7999ZM131.128 23.8579H125.855V43.9829H131.128V23.8579ZM146.567 33.0269L150.428 22.2809L150.448 22.3429L152.086 17.7989H147.804L137.402 43.9889H142.639L145.119 37.0929H145.129L146.598 33.0269H146.567ZM151.397 24.9869L154.283 33.0269H148.496L147.033 37.0929H155.766L158.246 43.9879H163.796L153.687 18.6359L151.397 24.9869ZM180.846 33.3759C182.094 32.6776 183.157 31.692 183.947 30.5009C184.753 29.2939 185.154 27.8879 185.154 26.2809C185.154 24.5349 184.764 23.0309 183.983 21.7679C183.203 20.5049 182.089 19.5289 180.641 18.8409C179.193 18.1529 177.473 17.8089 175.471 17.8089H173.638V21.7729H174.778C178.269 21.7729 180.014 23.2669 180.014 26.2499C180.014 29.2329 178.212 30.7269 174.603 30.7269H173.633V34.6899H176.323L181.837 43.9929H187.731L180.841 33.3809L180.846 33.3759ZM171.857 17.7999H166.861V43.9829H171.857V17.7999Z"
       fill="#020617"
       id="path30"
       style="fill:#ffffff;fill-opacity:1" />
  </g>
  <defs
     id="defs82">
    <linearGradient
       id="paint0_linear_286_12148"
       x1="9.52728"
       y1="50.4732"
       x2="47.7763"
       y2="12.2192"
       gradientUnits="userSpaceOnUse">
      <stop
         stop-color="#E6007A"
         id="stop30" />
      <stop
         offset="0.21"
         stop-color="#703AC2"
         id="stop31" />
      <stop
         offset="0.46"
         stop-color="#0070EB"
         id="stop32" />
      <stop
         offset="0.77"
         stop-color="#0297FB"
         id="stop33" />
      <stop
         offset="1"
         stop-color="#0AE2FF"
         id="stop34" />
    </linearGradient>
    <radialGradient
       id="paint1_radial_286_12148"
       cx="0"
       cy="0"
       r="1"
       gradientUnits="userSpaceOnUse"
       gradientTransform="translate(38.5505 23.924) scale(11.408)">
      <stop
         stop-color="white"
         id="stop35" />
      <stop
         offset="1"
         stop-color="white"
         stop-opacity="0"
         id="stop36" />
    </radialGradient>
    <radialGradient
       id="paint2_radial_286_12148"
       cx="0"
       cy="0"
       r="1"
       gradientUnits="userSpaceOnUse"
       gradientTransform="translate(21.6901 45.0869) scale(6.63838 6.63839)">
      <stop
         stop-color="white"
         id="stop37" />
      <stop
         offset="1"
         stop-color="white"
         stop-opacity="0"
         id="stop38" />
    </radialGradient>
    <linearGradient
       id="paint3_linear_286_12148"
       x1="11.7293"
       y1="43.9632"
       x2="18.1273"
       y2="43.8752"
       gradientUnits="userSpaceOnUse">
      <stop
         stop-color="white"
         stop-opacity="0"
         id="stop39" />
      <stop
         offset="1"
         stop-color="white"
         id="stop40" />
    </linearGradient>
    <radialGradient
       id="paint4_radial_286_12148"
       cx="0"
       cy="0"
       r="1"
       gradientUnits="userSpaceOnUse"
       gradientTransform="translate(20.4635 25.6269) rotate(-120) scale(11.408 11.408)">
      <stop
         stop-color="white"
         id="stop41" />
      <stop
         offset="1"
         stop-color="white"
         stop-opacity="0"
         id="stop42" />
    </radialGradient>
    <radialGradient
       id="paint5_radial_286_12148"
       cx="0"
       cy="0"
       r="1"
       gradientUnits="userSpaceOnUse"
       gradientTransform="translate(47.223 29.6478) rotate(-120) scale(6.63838)">
      <stop
         stop-color="white"
         id="stop43" />
      <stop
         offset="1"
         stop-color="white"
         stop-opacity="0"
         id="stop44" />
    </radialGradient>
    <linearGradient
       id="paint6_linear_286_12148"
       x1="51.2274"
       y1="38.8318"
       x2="47.9524"
       y2="33.3358"
       gradientUnits="userSpaceOnUse">
      <stop
         stop-color="white"
         stop-opacity="0"
         id="stop45" />
      <stop
         offset="1"
         stop-color="white"
         id="stop46" />
    </linearGradient>
    <radialGradient
       id="paint7_radial_286_12148"
       cx="0"
       cy="0"
       r="1"
       gradientUnits="userSpaceOnUse"
       gradientTransform="translate(30.4404 39.9113) rotate(120) scale(11.408)">
      <stop
         stop-color="white"
         id="stop47" />
      <stop
         offset="1"
         stop-color="white"
         stop-opacity="0"
         id="stop48" />
    </radialGradient>
    <radialGradient
       id="paint8_radial_286_12148"
       cx="0"
       cy="0"
       r="1"
       gradientUnits="userSpaceOnUse"
       gradientTransform="translate(21.0821 15.2599) rotate(120) scale(6.63838)">
      <stop
         stop-color="white"
         id="stop49" />
      <stop
         offset="1"
         stop-color="white"
         stop-opacity="0"
         id="stop50" />
    </radialGradient>
    <linearGradient
       id="paint9_linear_286_12148"
       x1="27.0325"
       y1="7.1931"
       x2="23.9135"
       y2="12.7801"
       gradientUnits="userSpaceOnUse">
      <stop
         stop-color="white"
         stop-opacity="0"
         id="stop51" />
      <stop
         offset="1"
         stop-color="white"
         id="stop52" />
    </linearGradient>
    <linearGradient
       id="paint10_linear_286_12148"
       x1="28.4258"
       y1="4.35316"
       x2="18.6498"
       y2="7.19716"
       gradientUnits="userSpaceOnUse">
      <stop
         stop-color="#231F20"
         id="stop53" />
      <stop
         offset="1"
         stop-color="white"
         id="stop54" />
    </linearGradient>
    <linearGradient
       id="paint11_linear_286_12148"
       x1="9.95811"
       y1="41.6271"
       x2="18.1321"
       y2="50.1591"
       gradientUnits="userSpaceOnUse">
      <stop
         stop-color="#231F20"
         id="stop55" />
      <stop
         offset="1"
         stop-color="white"
         id="stop56" />
    </linearGradient>
    <linearGradient
       id="paint12_linear_286_12148"
       x1="53.8248"
       y1="40.343"
       x2="56.6688"
       y2="31.697"
       gradientUnits="userSpaceOnUse">
      <stop
         stop-color="#231F20"
         id="stop57" />
      <stop
         offset="1"
         stop-color="white"
         id="stop58" />
    </linearGradient>
    <linearGradient
       id="paint13_linear_286_12148"
       x1="32.8772"
       y1="9.30196"
       x2="45.9802"
       y2="12.301"
       gradientUnits="userSpaceOnUse">
      <stop
         stop-color="#231F20"
         id="stop59" />
      <stop
         offset="1"
         stop-color="white"
         id="stop60" />
    </linearGradient>
    <linearGradient
       id="paint14_linear_286_12148"
       x1="46.4864"
       y1="42.8401"
       x2="37.3314"
       y2="52.6901"
       gradientUnits="userSpaceOnUse">
      <stop
         stop-color="#231F20"
         id="stop61" />
      <stop
         offset="1"
         stop-color="white"
         id="stop62" />
    </linearGradient>
    <linearGradient
       id="paint15_linear_286_12148"
       x1="10.6329"
       y1="37.8612"
       x2="6.68291"
       y2="25.0122"
       gradientUnits="userSpaceOnUse">
      <stop
         stop-color="#231F20"
         id="stop63" />
      <stop
         offset="1"
         stop-color="white"
         id="stop64" />
    </linearGradient>
    <linearGradient
       id="paint16_linear_286_12148"
       x1="35.7412"
       y1="14.1332"
       x2="31.5982"
       y2="18.2822"
       gradientUnits="userSpaceOnUse">
      <stop
         stop-color="#231F20"
         id="stop65" />
      <stop
         offset="1"
         stop-color="white"
         id="stop66" />
    </linearGradient>
    <linearGradient
       id="paint17_linear_286_12148"
       x1="13.389"
       y1="32.951"
       x2="19.051"
       y2="34.472"
       gradientUnits="userSpaceOnUse">
      <stop
         stop-color="#231F20"
         id="stop67" />
      <stop
         offset="1"
         stop-color="white"
         id="stop68" />
    </linearGradient>
    <linearGradient
       id="paint18_linear_286_12148"
       x1="40.8611"
       y1="42.9028"
       x2="39.3441"
       y2="37.2428"
       gradientUnits="userSpaceOnUse">
      <stop
         stop-color="#231F20"
         id="stop69" />
      <stop
         offset="1"
         stop-color="white"
         id="stop70" />
    </linearGradient>
    <linearGradient
       id="paint19_linear_286_12148"
       x1="32.242"
       y1="37.8679"
       x2="34.732"
       y2="34.4339"
       gradientUnits="userSpaceOnUse">
      <stop
         stop-color="#231F20"
         id="stop71" />
      <stop
         offset="1"
         stop-color="white"
         id="stop72" />
    </linearGradient>
    <linearGradient
       id="paint20_linear_286_12148"
       x1="23.6782"
       y1="36.3802"
       x2="18.7032"
       y2="38.7522"
       gradientUnits="userSpaceOnUse">
      <stop
         stop-color="#231F20"
         id="stop73" />
      <stop
         offset="1"
         stop-color="white"
         id="stop74" />
    </linearGradient>
    <linearGradient
       id="paint21_linear_286_12148"
       x1="21.8703"
       y1="28.0981"
       x2="23.4103"
       y2="31.2971"
       gradientUnits="userSpaceOnUse">
      <stop
         stop-color="#231F20"
         id="stop75" />
      <stop
         offset="1"
         stop-color="white"
         id="stop76" />
    </linearGradient>
    <linearGradient
       id="paint22_linear_286_12148"
       x1="29.0327"
       y1="18.2201"
       x2="27.9697"
       y2="14.5491"
       gradientUnits="userSpaceOnUse">
      <stop
         stop-color="#231F20"
         id="stop77" />
      <stop
         offset="1"
         stop-color="white"
         id="stop78" />
    </linearGradient>
    <linearGradient
       id="paint23_linear_286_12148"
       x1="40.5234"
       y1="35.034"
       x2="43.6034"
       y2="35.743"
       gradientUnits="userSpaceOnUse">
      <stop
         stop-color="#231F20"
         id="stop79" />
      <stop
         offset="1"
         stop-color="white"
         id="stop80" />
    </linearGradient>
    <linearGradient
       id="paint24_linear_286_12148"
       x1="35.6914"
       y1="24.6279"
       x2="31.7844"
       y2="23.9189"
       gradientUnits="userSpaceOnUse">
      <stop
         stop-color="#231F20"
         id="stop81" />
      <stop
         offset="1"
         stop-color="white"
         id="stop82" />
    </linearGradient>
    <clipPath
       id="clip0_286_12148">
      <rect
         width="188"
         height="60"
         fill="white"
         id="rect82" />
    </clipPath>
  </defs>
</svg>
